<svg width="64" height="64" viewBox="0 0 64 64" fill="none" xmlns="http://www.w3.org/2000/svg">
<g filter="url(#filter0_dd_0_438)">
<path d="M12 22C12 10.9543 20.9543 2 32 2C43.0457 2 52 10.9543 52 22C52 33.0457 43.0457 42 32 42C20.9543 42 12 33.0457 12 22Z" fill="url(#paint0_linear_0_438)" shape-rendering="crispEdges"/>
<path d="M31.6352 14.7217C31.6712 14.6564 31.724 14.6019 31.7882 14.5639C31.8524 14.526 31.9256 14.506 32.0002 14.506C32.0748 14.506 32.148 14.526 32.2122 14.5639C32.2764 14.6019 32.3292 14.6564 32.3652 14.7217L34.8252 19.3917C34.8839 19.4998 34.9657 19.5936 35.0649 19.6664C35.1642 19.7391 35.2783 19.789 35.399 19.8124C35.5198 19.8358 35.6443 19.8322 35.7635 19.8018C35.8827 19.7715 35.9937 19.7151 36.0885 19.6367L39.6527 16.5834C39.7211 16.5277 39.8054 16.4952 39.8935 16.4905C39.9816 16.4858 40.0688 16.5092 40.1428 16.5573C40.2167 16.6054 40.2735 16.6757 40.3049 16.7581C40.3363 16.8405 40.3408 16.9307 40.3177 17.0159L37.956 25.5542C37.9078 25.7289 37.804 25.8831 37.6602 25.9935C37.5164 26.1039 37.3406 26.1644 37.1594 26.1659H26.8419C26.6605 26.1646 26.4844 26.1042 26.3405 25.9938C26.1966 25.8834 26.0926 25.729 26.0444 25.5542L23.6835 17.0167C23.6604 16.9316 23.6649 16.8413 23.6963 16.7589C23.7277 16.6765 23.7845 16.6062 23.8584 16.5581C23.9324 16.5101 24.0197 16.4867 24.1077 16.4914C24.1958 16.496 24.2801 16.5285 24.3485 16.5842L27.9119 19.6375C28.0067 19.7159 28.1177 19.7723 28.2369 19.8027C28.3561 19.833 28.4806 19.8367 28.6014 19.8132C28.7221 19.7898 28.8362 19.7399 28.9354 19.6672C29.0346 19.5945 29.1165 19.5007 29.1752 19.3925L31.6352 14.7217Z" stroke="#101828" stroke-width="1.66667" stroke-linecap="round" stroke-linejoin="round"/>
<path d="M26.1665 29.5H37.8332" stroke="#101828" stroke-width="1.66667" stroke-linecap="round" stroke-linejoin="round"/>
</g>
<defs>
<filter id="filter0_dd_0_438" x="0" y="0" width="64" height="64" filterUnits="userSpaceOnUse" color-interpolation-filters="sRGB">
<feFlood flood-opacity="0" result="BackgroundImageFix"/>
<feColorMatrix in="SourceAlpha" type="matrix" values="0 0 0 0 0 0 0 0 0 0 0 0 0 0 0 0 0 0 127 0" result="hardAlpha"/>
<feMorphology radius="4" operator="erode" in="SourceAlpha" result="effect1_dropShadow_0_438"/>
<feOffset dy="4"/>
<feGaussianBlur stdDeviation="3"/>
<feComposite in2="hardAlpha" operator="out"/>
<feColorMatrix type="matrix" values="0 0 0 0 0.996078 0 0 0 0 0.603922 0 0 0 0 0 0 0 0 0.3 0"/>
<feBlend mode="normal" in2="BackgroundImageFix" result="effect1_dropShadow_0_438"/>
<feColorMatrix in="SourceAlpha" type="matrix" values="0 0 0 0 0 0 0 0 0 0 0 0 0 0 0 0 0 0 127 0" result="hardAlpha"/>
<feMorphology radius="3" operator="erode" in="SourceAlpha" result="effect2_dropShadow_0_438"/>
<feOffset dy="10"/>
<feGaussianBlur stdDeviation="7.5"/>
<feComposite in2="hardAlpha" operator="out"/>
<feColorMatrix type="matrix" values="0 0 0 0 0.996078 0 0 0 0 0.603922 0 0 0 0 0 0 0 0 0.3 0"/>
<feBlend mode="normal" in2="effect1_dropShadow_0_438" result="effect2_dropShadow_0_438"/>
<feBlend mode="normal" in="SourceGraphic" in2="effect2_dropShadow_0_438" result="shape"/>
</filter>
<linearGradient id="paint0_linear_0_438" x1="12" y1="2" x2="52" y2="42" gradientUnits="userSpaceOnUse">
<stop stop-color="#FFB900"/>
<stop offset="1" stop-color="#FE9A00"/>
</linearGradient>
</defs>
</svg>
