<svg xmlns="http://www.w3.org/2000/svg" width="800" height="400" viewBox="0 0 800 400">
  <defs>
    <filter id="n" x="-20%" y="-20%" width="140%" height="140%">
      <feGaussianBlur stdDeviation="0.5"/>
    </filter>
  </defs>
  <rect width="800" height="400" fill="#2a3542"/>
  <g opacity="0.85">
    <rect x="20" y="40" width="160" height="72" rx="6" fill="#1e3a5f" stroke="#fff" stroke-width="2"/>
    <text x="100" y="82" fill="#fff" font-family="Arial,sans-serif" font-size="22" font-weight="bold" text-anchor="middle">CALIFORNIA</text>
    <rect x="200" y="60" width="140" height="64" rx="5" fill="#c41e3a" stroke="#fff" stroke-width="2"/>
    <text x="270" y="100" fill="#fff" font-family="Arial,sans-serif" font-size="20" font-weight="bold" text-anchor="middle">FLORIDA</text>
    <rect x="360" y="30" width="150" height="70" rx="5" fill="#f4d03f" stroke="#333" stroke-width="2"/>
    <text x="435" y="75" fill="#222" font-family="Arial,sans-serif" font-size="18" font-weight="bold" text-anchor="middle">NY</text>
    <rect x="530" y="50" width="170" height="68" rx="6" fill="#fff" stroke="#1a1a1a" stroke-width="2"/>
    <text x="615" y="92" fill="#1a4480" font-family="Arial,sans-serif" font-size="16" font-weight="bold" text-anchor="middle">TEXAS</text>
    <rect x="80" y="160" width="155" height="66" rx="5" fill="#fff" stroke="#333" stroke-width="2"/>
    <rect x="280" y="180" width="145" height="62" rx="5" fill="#2ecc71" stroke="#fff" stroke-width="2"/>
    <rect x="460" y="150" width="160" height="72" rx="6" fill="#8e44ad" stroke="#fff" stroke-width="2"/>
    <rect x="640" y="170" width="130" height="58" rx="4" fill="#e67e22" stroke="#fff" stroke-width="2"/>
    <rect x="40" y="270" width="200" height="70" rx="6" fill="#34495e" stroke="#ecf0f1" stroke-width="2"/>
    <rect x="280" y="260" width="180" height="68" rx="5" fill="#16a085" stroke="#fff" stroke-width="2"/>
    <rect x="500" y="280" width="150" height="64" rx="5" fill="#c0392b" stroke="#fff" stroke-width="2"/>
  </g>
</svg>
