<svg width="14" height="14" viewBox="0 0 14 14" fill="none" xmlns="http://www.w3.org/2000/svg">
<g clip-path="url(#clip0_0_409)">
<path d="M2.33337 8.16668C2.22298 8.16706 2.11475 8.1361 2.02126 8.07742C1.92776 8.01873 1.85284 7.93472 1.80519 7.83515C1.75754 7.73557 1.73912 7.62452 1.75208 7.5149C1.76503 7.40527 1.80882 7.30157 1.87837 7.21585L7.65337 1.26585C7.69669 1.21584 7.75572 1.18205 7.82078 1.17002C7.88583 1.15799 7.95304 1.16844 8.01138 1.19964C8.06972 1.23084 8.11571 1.28095 8.14182 1.34174C8.16792 1.40253 8.17258 1.47039 8.15504 1.53418L7.03504 5.04585C7.00201 5.13424 6.99092 5.22932 7.00271 5.32293C7.01451 5.41655 7.04884 5.50591 7.10276 5.58335C7.15667 5.66078 7.22857 5.72398 7.31228 5.76752C7.39599 5.81107 7.48901 5.83365 7.58337 5.83335H11.6667C11.7771 5.83297 11.8853 5.86392 11.9788 5.92261C12.0723 5.9813 12.1472 6.06531 12.1949 6.16488C12.2425 6.26445 12.2609 6.3755 12.248 6.48513C12.235 6.59475 12.1912 6.69845 12.1217 6.78418L6.3467 12.7342C6.30338 12.7842 6.24435 12.818 6.1793 12.83C6.11424 12.842 6.04703 12.8316 5.98869 12.8004C5.93036 12.7692 5.88436 12.7191 5.85826 12.6583C5.83215 12.5975 5.82749 12.5296 5.84504 12.4658L6.96504 8.95418C6.99806 8.86579 7.00915 8.77071 6.99736 8.67709C6.98556 8.58348 6.95123 8.49412 6.89732 8.41668C6.8434 8.33925 6.7715 8.27605 6.68779 8.2325C6.60408 8.18896 6.51106 8.16637 6.4167 8.16668H2.33337Z" stroke="#E17100" stroke-width="1.16667" stroke-linecap="round" stroke-linejoin="round"/>
</g>
<defs>
<clipPath id="clip0_0_409">
<rect width="14" height="14" fill="white"/>
</clipPath>
</defs>
</svg>
